<svg viewBox="0 0 200 224" xmlns="http://www.w3.org/2000/svg" fill-rule="evenodd" clip-rule="evenodd" stroke-linejoin="round" stroke-miterlimit="1.414"><path d="M100 224L0 166.585V57.415L100 0l100 57.415v109.17L100 224z" fill="#463e41"/><path d="M.598 166.239L100 223.31l99.402-57.071V57.762L100 .69.598 57.762v108.477z" fill="#fff"/><path d="M100 219.331L4.176 164.315V59.686L100 4.669l95.824 55.017v104.629L100 219.331zM5.284 163.673L100 218.053l94.716-54.38V60.328L100 5.947 5.284 60.328v103.345zm105.629 34.912H89.098v-.944h8.645l.665-46.62-5.326-1.427-16.045 6.548-.266-.603 13.98-6.522H79.403l-1.507-.598h46.284l-.474.598h-7.963l-14.091 5.13.62 43.494h8.641v.944zm-9.292-46.717l-.036-2.851h8.583l-8.547 2.851zm-36.841-2.851H52.187l.842-.598h12.376l-.625.598zm68.82 0h-5.144l-.789-.598h5.623l.31.598zm44.949 0h-21.955a.79.79 0 00-.31-.439l-.235-.159h22.5v.598zm-34.761 0h-5.136l-1.086-.598h4.954c.413.212.833.412 1.268.598zm-98.341 0H21.451v-.598h24.461l-.465.598zm93.387-11.461h-.887v-8.1h.887v8.1zm-62.222 0h-.886v-8.1h.886v8.1zm31.413-7.213h-5.899v3.047h3.277v.887h-3.277v2.392h5.899v.887h-6.785v-8.1h6.785v.887zm-45.972 6.326h5.898v.887h-6.785v-8.1h.887v7.213zm86.425 0h5.898v.887h-6.785v-8.1h.887v7.213zm-58.992.887h-.793l-4.385-8.1h.918l3.864 7.137 3.863-7.137h.918l-4.385 8.1zm-39.814-8.1a4.054 4.054 0 00-4.048 4.05 4.054 4.054 0 004.048 4.05 4.054 4.054 0 004.048-4.05 4.054 4.054 0 00-4.048-4.05zm76.781 0a4.053 4.053 0 00-4.048 4.05 4.053 4.053 0 004.048 4.05 4.054 4.054 0 004.048-4.05 4.054 4.054 0 00-4.048-4.05zm0 7.213a3.166 3.166 0 01-3.162-3.163 3.165 3.165 0 013.162-3.163 3.165 3.165 0 013.161 3.163 3.166 3.166 0 01-3.161 3.163zm-76.781 0a3.166 3.166 0 01-3.162-3.163 3.165 3.165 0 013.162-3.163 3.165 3.165 0 013.161 3.163 3.166 3.166 0 01-3.161 3.163zm20.306-48.17c-2.237 0-4.272 1.721-5.73 4.847-1.338 2.868-2.075 6.658-2.075 10.671v1.607c0 4.013.737 7.803 2.075 10.671 1.458 3.126 3.493 4.847 5.73 4.847 2.236 0 4.271-1.721 5.729-4.847 1.338-2.868 2.075-6.658 2.075-10.671v-1.607c0-4.013-.737-7.803-2.075-10.671-1.458-3.126-3.493-4.847-5.729-4.847zm-32.232 2.124h-6.422v30.519h-2.122V90.623H22.78v-2.124h14.966v2.124zm6.223 30.519h-1.813V88.498h2.122v25.348l5.361-15.285 5.36 15.285V88.498h2.123v32.644h-1.814l-5.669-16.166-5.67 16.166zm55.998-30.52h-6.422v30.52h-2.123v-30.52h-6.421v-2.124h14.966v2.124zm38.626 0H125.75v16.188h8.348v2.124h-8.348v10.084h12.843v2.124h-14.966V88.498h14.966v2.124zm19.375 0h-12.843v16.188h8.348v2.124h-8.348v10.084h12.843v2.124h-14.966V88.498h14.966v2.124zm17.647 5.462h-2.123v-.259a5.208 5.208 0 00-5.2-5.203 5.208 5.208 0 00-5.2 5.203c0 1.516.578 2.803 1.819 4.05 1.192 1.198 2.811 2.195 4.527 3.251 1.834 1.13 3.731 2.298 5.193 3.798 1.742 1.789 2.589 3.781 2.589 6.088 0 4.483-3.645 8.13-8.125 8.13s-8.125-3.647-8.125-8.13v-.258h2.122v.258a6.011 6.011 0 006.003 6.006 6.01 6.01 0 006.002-6.006c0-3.907-3.289-5.932-6.772-8.077-3.616-2.227-7.355-4.529-7.355-9.11 0-4.04 3.285-7.327 7.322-7.327 4.038 0 7.323 3.287 7.323 7.327v.259zm-69.116 25.058h-2.123V88.498h6.726c2.223 0 4.295 1.099 5.835 3.095 1.477 1.915 2.29 4.444 2.29 7.123 0 2.679-.813 5.209-2.29 7.123-.903 1.171-2.02 2.056-3.238 2.569l5.352 12.734h-2.303l-5.131-12.208h-5.118v12.208zm-30.84-17.125v1.607c0 3.709-.666 7.18-1.876 9.773-1.073 2.301-2.46 3.621-3.805 3.621-1.346 0-2.733-1.32-3.806-3.621-1.21-2.593-1.876-6.063-1.876-9.773v-1.607c0-3.71.666-7.181 1.876-9.773 1.073-2.301 2.46-3.621 3.806-3.621 1.345 0 2.732 1.32 3.805 3.621 1.21 2.593 1.876 6.064 1.876 9.773zm35.443-13.395h-4.603v16.188h4.603c3.31 0 6.003-3.631 6.003-8.094 0-4.463-2.693-8.094-6.003-8.094zM59.574 77.635H21.451v-.598h37.36l.763.598zm20.396-.598h10.755l.305.598H71.657l.031-.598h7.44l-.483-5.485.656-.071.669 5.556zm41.959.598h-7.622l-.545-.598h3.585l.545-6.203.656.045-.293 6.158h3.612l.062.598zm8.747 0h-5.335l.266-.598h2.893l2.929-3.339.496.426-2.441 2.913h1.777l-.585.598zm-30.008-.598h8.388l-.217.598h-12.38l-.28-.598h3.182l.328-25.338h.656l.323 25.338zm77.881.598h-39.715l1.626-.598h38.089v.598zm-110.871 0h-3.084l-.301-.598h3.164l.221.598z" fill="#463e41"/><path d="M70.518 159.466c.734 1.271 2.615 1.512 4.283.549 1.668-.964 2.4-2.714 1.666-3.986a2.088 2.088 0 00-.211-.302c-.84-1.002-2.546-1.129-4.072-.247-1.668.963-2.4 2.714-1.666 3.986zm1.218-1.161h.001a.655.655 0 11-.001 0zm57.48-5.244c.942-1.125.526-2.976-.949-4.215-1.476-1.238-3.37-1.328-4.314-.203-.08.096-.15.196-.211.301-.654 1.134-.19 2.781 1.16 3.914 1.476 1.239 3.371 1.328 4.314.203zm-1.507-.749a.656.656 0 01.363-1.153.65.65 0 01.478.151c.134.112.216.27.231.444a.654.654 0 01-1.072.558zM109.29 76.694c-.943 1.125-.526 2.976.949 4.215 1.475 1.239 3.37 1.328 4.313.203a2.04 2.04 0 00.211-.301c.654-1.133.191-2.78-1.16-3.914-1.475-1.238-3.37-1.328-4.313-.203zm1.507.749a.656.656 0 01-.841 1.003.648.648 0 01-.231-.445.655.655 0 011.072-.558zM92.578 57.824c-1.123.944-1.035 2.84.203 4.316s3.089 1.893 4.213.95c.095-.08.182-.167.26-.26.841-1.003.67-2.705-.463-4.056-1.238-1.476-3.089-1.894-4.213-.95zm-8.725-20.342l.583.583-24.632 24.649-.582-.582 24.631-24.65zm10.079 21.342a.656.656 0 01-.558 1.073.653.653 0 01-.595-.709.654.654 0 011.153-.364zM63.344 38.425h-.657a2.962 2.962 0 012.958-2.96 2.963 2.963 0 012.959 2.96c0 1.782-1.331 2.747-2.739 3.769-.641.464-1.304.945-1.888 1.529a8.444 8.444 0 00-1.389 1.833 2.518 2.518 0 013.006.712c.357.445.886.699 1.454.699a1.866 1.866 0 001.863-1.864h.657c0 1.39-1.13 2.521-2.52 2.521a2.51 2.51 0 01-1.966-.944 1.865 1.865 0 00-3.224.597l-.031.108-.634-.173a9.1 9.1 0 012.32-3.954c.621-.621 1.305-1.117 1.966-1.597 1.324-.96 2.468-1.789 2.468-3.236a2.305 2.305 0 00-2.302-2.303 2.304 2.304 0 00-2.301 2.303z" fill="#2c3d57" fill-rule="nonzero"/><path d="M83.749 167.787a.756.756 0 00.489.658.753.753 0 00.798-.19c1.921-1.926 3.376-4.228 4.327-6.841a18.762 18.762 0 00.998-8.785l-4.97 13.166-.333-.121 4.651-13.282c-2.165 1.995-3.848 4.535-4.879 7.371a18.639 18.639 0 00-1.081 8.024zm35.642-4.392a.756.756 0 00.733-.368.756.756 0 00-.049-.819c-1.562-2.227-3.575-4.061-5.982-5.451-2.612-1.51-5.533-2.373-8.473-2.509l12.096 7.184-.177.306-12.266-6.889c1.588 2.48 3.796 4.579 6.408 6.088a18.62 18.62 0 007.71 2.458zm25.855-5.126c.297.08.598-.01.786-.234a.757.757 0 00.094-.815c-1.152-2.465-2.816-4.621-4.945-6.409-2.311-1.94-5.037-3.297-7.909-3.942l10.666 9.176-.228.271-10.884-8.916a18.75 18.75 0 005.254 7.109c2.129 1.788 4.54 3.053 7.166 3.76zm-79.972-9.807a.753.753 0 00-.509.643.756.756 0 00.39.722 18.602 18.602 0 007.724 2.411c3.005.263 6.016-.19 8.739-1.309l-13.997-1.396.031-.353 14.027 1.057c-2.487-1.576-5.374-2.545-8.379-2.808-2.769-.242-5.469.105-8.026 1.033zm-20.977 2.307a.756.756 0 00.023.82c.168.241.46.356.762.303a18.603 18.603 0 007.466-3.121 18.755 18.755 0 005.854-6.624l-11.62 7.933-.202-.29 11.424-8.211c-2.918.392-5.752 1.507-8.223 3.238-2.276 1.595-4.122 3.597-5.484 5.952zm111.747-.84a.755.755 0 00.563-.596.758.758 0 00-.325-.754 18.624 18.624 0 00-7.485-3.075c-2.971-.524-6.01-.336-8.82.542l13.822 2.611-.061.349-13.882-2.276c2.34 1.786 5.132 3.003 8.103 3.528 2.737.483 5.457.372 8.085-.329zM90.078 69.814a.758.758 0 00-.819-.049.757.757 0 00-.367.734 18.62 18.62 0 002.456 7.714c1.508 2.614 3.606 4.823 6.084 6.412l-6.885-12.273.306-.177 7.18 12.103c-.136-2.942-.999-5.865-2.507-8.478-1.39-2.409-3.223-4.423-5.448-5.986zm-21.744-4.143a.754.754 0 00-.752-.326.755.755 0 00-.596.564c-.701 2.629-.811 5.35-.329 8.089.524 2.973 1.741 5.766 3.526 8.107l-2.275-13.889.349-.061 2.61 13.83c.877-2.812 1.065-5.853.541-8.825-.482-2.739-1.516-5.258-3.074-7.489zm58.168-.856a.757.757 0 00-.596-.564.755.755 0 00-.753.326c-1.557 2.231-2.591 4.75-3.074 7.489-.523 2.972-.335 6.013.542 8.825l2.61-13.83.349.061-2.275 13.889a18.747 18.747 0 003.525-8.107c.483-2.738.372-5.46-.328-8.089zm-72.413 3.234a.756.756 0 00-.803.165.755.755 0 00-.165.804 18.619 18.619 0 004.368 6.815c2.133 2.134 4.731 3.724 7.536 4.618l-9.826-10.072.25-.25 10.066 9.831a18.752 18.752 0 00-4.615-7.54 18.607 18.607 0 00-6.811-4.371zm92.37 4.987a.755.755 0 00.19-.798.756.756 0 00-.658-.49 18.618 18.618 0 00-8.019 1.081c-2.835 1.033-5.373 2.716-7.367 4.882l13.275-4.653.121.333-13.159 4.973c2.919.376 5.945.034 8.78-.998 2.612-.952 4.912-2.408 6.837-4.33zM89.141 61.908a.756.756 0 00-.43-.698.757.757 0 00-.812.119c-2.081 1.752-3.731 3.918-4.906 6.438-1.275 2.736-1.88 5.722-1.759 8.665l6.098-12.683.321.149-5.79 12.827c2.33-1.799 4.227-4.182 5.502-6.918a18.633 18.633 0 001.776-7.899zm18.201-.665a.752.752 0 00-.819.023.754.754 0 00-.302.762 18.612 18.612 0 003.119 7.471c1.73 2.472 4.012 4.489 6.619 5.857l-7.928-11.626.29-.203 8.207 11.43c-.392-2.919-1.506-5.754-3.236-8.227a18.605 18.605 0 00-5.95-5.487zm35.427.574a.756.756 0 00-.234-.786.755.755 0 00-.815-.094c-2.463 1.152-4.618 2.817-6.404 4.947-1.939 2.313-3.296 5.04-3.941 7.914l9.172-10.671.27.227-8.91 10.89c2.716-1.134 5.165-2.945 7.104-5.257a18.613 18.613 0 003.758-7.17zm-64.547-6.765a.755.755 0 00-.722-.39.756.756 0 00-.643.509c-.927 2.558-1.274 5.26-1.031 8.031a18.745 18.745 0 002.806 8.383l-1.057-14.034.353-.031 1.395 14.005c1.119-2.724 1.571-5.737 1.309-8.744-.243-2.77-1.053-5.371-2.41-7.729zm42.14-.597a.753.753 0 00-.643-.509.755.755 0 00-.721.39 18.623 18.623 0 00-2.41 7.728c-.263 3.007.19 6.02 1.309 8.744l1.395-14.005.352.031-1.056 14.035c1.575-2.488 2.543-5.377 2.806-8.384.242-2.77-.105-5.472-1.032-8.03zm-9.451-10.013a.757.757 0 00-.368-.734.754.754 0 00-.818.049c-2.226 1.563-4.059 3.577-5.449 5.985-1.508 2.614-2.371 5.536-2.507 8.478l7.18-12.103.306.177-6.885 12.273c2.478-1.589 4.576-3.797 6.084-6.411a18.64 18.64 0 002.457-7.714zm-22.719-2.785a.755.755 0 00-.814.094.756.756 0 00-.235.787 18.627 18.627 0 003.758 7.17c1.939 2.312 4.388 4.122 7.105 5.257l-8.911-10.89.271-.228 9.171 10.672a18.755 18.755 0 00-3.94-7.914c-1.787-2.13-3.942-3.795-6.405-4.948zm12.499-6.649a.755.755 0 00-.684-.452.755.755 0 00-.685.452c-1.147 2.467-1.728 5.128-1.728 7.909 0 3.018.713 5.98 2.066 8.597l.17-14.074h.353l.171 14.074a18.78 18.78 0 002.065-8.597c0-2.781-.582-5.442-1.728-7.909z" fill="#9aa665" fill-rule="nonzero"/></svg>