<svg viewBox="0 0 211 98" xmlns="http://www.w3.org/2000/svg" fill-rule="evenodd" clip-rule="evenodd" stroke-linejoin="round" stroke-miterlimit="1.414"><path d="M36.955 86.02c-3.04 0-5.513 2.687-5.513 5.99 0 3.303 2.473 5.99 5.513 5.99s5.513-2.687 5.513-5.99c0-3.303-2.473-5.99-5.513-5.99zm104.572 0c-3.04 0-5.513 2.687-5.513 5.99 0 3.303 2.473 5.99 5.513 5.99s5.513-2.687 5.513-5.99c0-3.303-2.473-5.99-5.513-5.99zM91.181 98h-1.08l-5.973-11.98h1.251l5.262 10.555 5.262-10.555h1.25L91.181 98zm80.343-1.311h8.034V98h-9.241V86.02h1.207v10.669zm-117.706 0h8.033V98H52.61V86.02h1.208v10.669zM158.39 98h-1.208V86.02h1.208V98zm-84.743 0H72.44V86.02h1.207V98zm42.782-10.669h-8.033v4.508h4.463v1.312h-4.463v3.537h8.033V98h-9.241V86.02h9.241v1.311zm25.098 9.358c-2.374 0-4.306-2.1-4.306-4.679 0-2.58 1.932-4.679 4.306-4.679s4.306 2.099 4.306 4.679c0 2.579-1.932 4.679-4.306 4.679zm-104.572 0c-2.374 0-4.306-2.1-4.306-4.679 0-2.58 1.932-4.679 4.306-4.679s4.306 2.099 4.306 4.679c0 2.579-1.932 4.679-4.306 4.679zM122 79.444a.697.697 0 00.693-.377.831.831 0 00-.046-.84 18.218 18.218 0 00-5.652-5.594c-2.469-1.548-5.228-2.434-8.006-2.574l11.429 7.371-.167.315-11.59-7.069a18.442 18.442 0 006.055 6.247c2.274 1.426 4.725 2.275 7.284 2.521zm-16.423-.718c1.381.131 2.587-1.309 2.746-3.278.158-1.97-.799-3.616-2.181-3.747a1.83 1.83 0 00-.347-.001c-1.231.117-2.254 1.477-2.399 3.279-.158 1.97.799 3.616 2.181 3.747zm-.238-1.708c.027-.329.269-.583.562-.611a.595.595 0 01.527.238.704.704 0 01.143.49.687.687 0 01-.219.456.58.58 0 01-.451.155c-.339-.032-.591-.359-.562-.728zm-16.883-3.907a.816.816 0 00-.244.799.738.738 0 00.579.559c2.531.482 5.101.351 7.637-.387a17.342 17.342 0 007.336-4.331L90.886 73.32l-.086-.351 12.795-3.906c-2.717-.646-5.593-.567-8.347.235a17.138 17.138 0 00-6.792 3.813zm9.619-18.866a.668.668 0 00-.775.023.81.81 0 00-.285.783 20.028 20.028 0 002.947 7.665c1.635 2.537 3.791 4.607 6.255 6.009l-7.491-11.928.273-.209 7.755 11.729a20.24 20.24 0 00-3.058-8.442c-1.506-2.337-3.397-4.231-5.621-5.63zm15.417 9.036c-.795-1.233-2.585-1.312-4.076-.178-1.491 1.134-2.036 2.989-1.24 4.223.067.105.142.201.223.29.874.949 2.489.926 3.853-.111 1.491-1.135 2.036-2.99 1.24-4.224zm-22.341 4.346H2.013v-.837h89.138v.837zm117.836 0h-89.184v-.837h89.184v.837zm-96.546-3.05a.584.584 0 01-.792-.075.716.716 0 01-.172-.592.675.675 0 01.255-.434.576.576 0 01.462-.111.613.613 0 01.399.276.712.712 0 01-.152.936zM64.611 0c-3.047 0-5.818 2.547-7.804 7.169-1.822 4.242-2.825 9.848-2.825 15.784v2.375c0 5.936 1.003 11.542 2.825 15.784 1.986 4.623 4.757 7.169 7.804 7.169 3.046 0 5.818-2.546 7.803-7.169 1.822-4.242 2.825-9.848 2.825-15.784v-2.375c0-5.936-1.003-11.541-2.825-15.784C70.429 2.547 67.657 0 64.611 0zM20.713 3.142h-8.746v45.139H9.076V3.142H.33V0h20.383v3.142zm137.349 0H140.57v23.942h11.369v3.141H140.57v14.914h17.492v3.141h-20.383V0h20.383v3.142zm26.388 0h-17.492v23.942h11.37v3.141h-11.37v14.914h17.492v3.141h-20.383V0h20.383v3.142zm-78.996 0h-8.745V48.28h-2.892V3.142h-8.745V0h20.382v3.142zm103.03 8.077h-2.891v-.383c0-4.243-3.177-7.695-7.082-7.695s-7.082 3.452-7.082 7.695c0 2.243.787 4.146 2.477 5.991 1.623 1.771 3.829 3.246 6.165 4.808 2.499 1.671 5.083 3.399 7.073 5.617 2.373 2.646 3.526 5.591 3.526 9.004 0 6.63-4.964 12.024-11.066 12.024s-11.066-5.394-11.066-12.024v-.382h2.891v.382c0 4.898 3.668 8.883 8.175 8.883 4.508 0 8.175-3.985 8.175-8.883 0-5.778-4.48-8.774-9.223-11.946-4.925-3.293-10.018-6.698-10.018-13.474 0-5.975 4.474-10.836 9.973-10.836 5.499 0 9.973 4.861 9.973 10.836v.383zM29.189 48.28h-2.47V0h2.891v37.489l7.3-22.606 7.3 22.606V0h2.892v48.28h-2.471L36.91 24.371 29.189 48.28zm85.162 0h-2.891V0h9.161c3.027 0 5.849 1.626 7.947 4.577 2.011 2.832 3.119 6.573 3.119 10.535 0 3.962-1.108 7.704-3.119 10.535-1.23 1.731-2.751 3.041-4.411 3.799l7.29 18.834h-3.137l-6.987-18.055h-6.972V48.28zM72.348 22.953v2.375c0 5.487-.907 10.62-2.554 14.455-1.462 3.404-3.351 5.356-5.183 5.356-1.833 0-3.722-1.952-5.184-5.356-1.647-3.834-2.554-8.968-2.554-14.455v-2.375c0-5.487.907-10.621 2.554-14.455 1.462-3.404 3.351-5.356 5.184-5.356 1.832 0 3.721 1.952 5.183 5.356 1.647 3.835 2.554 8.968 2.554 14.455zm48.273-19.812h-6.27v23.942h6.27c4.507 0 8.175-5.37 8.175-11.971 0-6.6-3.667-11.97-8.175-11.971z" fill="#fff" fill-rule="nonzero"/></svg>